<?xml version="1.0" encoding="UTF-8" standalone="no"?><!DOCTYPE svg PUBLIC "-//W3C//DTD SVG 1.1//EN" "http://www.w3.org/Graphics/SVG/1.1/DTD/svg11.dtd">
<svg width="100%" height="100%" viewBox="0 0 24 24" version="1.1"
  xmlns="http://www.w3.org/2000/svg"
  xmlns:xlink="http://www.w3.org/1999/xlink" xml:space="preserve"
  xmlns:serif="http://www.serif.com/" style="fill-rule:evenodd;clip-rule:evenodd;stroke-linejoin:round;stroke-miterlimit:2;"
>
  <style>
    path {
      fill: #000;
    }
    @media (prefers-color-scheme: dark) {
      path {
        fill: #fff;
      }
    }
  </style>
  <path d="M9,5l6,0c0,1.646 1.354,3 3,3l1,0c0.549,0 1,0.451 1,1l0,3.5c0,0.552 0.448,1 1,1c0.552,0 1,-0.448 1,-1l0,-3.5c0,-1.646 -1.354,-3 -3,-3l-1,0c-0.531,0 -0.972,-0.424 -0.999,-0.949l-0.004,-0.153c-0.054,-1.051 -0.934,-1.898 -1.997,-1.898l-6,0c-1.097,0 -2,0.903 -2,2c0,0.549 -0.451,1 -1,1l-1,0c-1.646,0 -3,1.354 -3,3l0,9c0,1.646 1.354,3 3,3l8,0c0.552,0 1,-0.448 1,-1c0,-0.552 -0.448,-1 -1,-1l-8,0c-0.549,0 -1,-0.451 -1,-1l0,-9c0,-0.549 0.451,-1 1,-1l1,0c1.646,0 3,-1.354 3,-3Z"/>
  <path d="M12.103,9.001l-0.103,-0.001c-2.16,0 -3.944,1.75 -3.999,3.897l-0.001,0.103c0,2.194 1.806,4 4,4c2.194,0 4,-1.806 4,-4c0,-2.16 -1.75,-3.944 -3.897,-3.999Zm-0.205,2.002c-1.017,0.052 -1.843,0.878 -1.895,1.895l-0.003,0.102c0,1.097 0.903,2 2,2c1.097,0 2,-0.903 2,-2c0,-1.097 -0.903,-2 -2,-2l-0.102,0.003Z"/>
  <path d="M18.168,15.445l-2,3c-0.205,0.307 -0.224,0.702 -0.05,1.027c0.174,0.325 0.513,0.528 0.882,0.528l2.131,0l-0.963,1.445c-0.306,0.46 -0.182,1.081 0.277,1.387c0.46,0.306 1.081,0.182 1.387,-0.277l2,-3c0.205,-0.307 0.224,-0.702 0.05,-1.027c-0.174,-0.325 -0.513,-0.528 -0.882,-0.528l-2.131,0l0.963,-1.445c0.306,-0.46 0.182,-1.081 -0.277,-1.387c-0.46,-0.306 -1.081,-0.182 -1.387,0.277Z" />
</svg>