<?xml version="1.0" encoding="UTF-8" standalone="no"?><!DOCTYPE svg PUBLIC "-//W3C//DTD SVG 1.1//EN" "http://www.w3.org/Graphics/SVG/1.1/DTD/svg11.dtd">
<svg width="100%" height="100%" viewBox="0 0 600 150" version="1.1"
    xmlns="http://www.w3.org/2000/svg"
    xmlns:xlink="http://www.w3.org/1999/xlink" xml:space="preserve"
    xmlns:serif="http://www.serif.com/" style="fill-rule:evenodd;clip-rule:evenodd;stroke-linejoin:round;stroke-miterlimit:2;">
    <g id="Layer1" fill='black'>
        <g>
            <path d="M4.648,143.828l0,-137.5l26.016,0l19.531,100.469l18.36,-100.469l26.172,0l-0,137.5l-18.672,0l-0,-51.25l0.781,-47.031l-18.516,97.656l-16.64,0l-19.297,-97.656l0.781,47.031l0,51.25l-18.516,0Z" style="fill-rule:nonzero;"/>
            <path d="M144.336,145.391c-7.135,-0 -12.956,-1.511 -17.461,-4.532c-4.505,-3.02 -7.826,-7.5 -9.961,-13.437c-2.135,-5.938 -3.203,-13.281 -3.203,-22.031l-0,-62.891c-0,-7.917 1.042,-14.687 3.125,-20.312c2.083,-5.625 5.391,-9.948 9.922,-12.969c4.531,-3.021 10.469,-4.531 17.812,-4.531c5.521,-0 10.183,0.859 13.985,2.578c3.802,1.718 6.875,4.205 9.218,7.461c2.344,3.255 4.05,7.213 5.118,11.875c1.067,4.661 1.601,9.961 1.601,15.898l0,62.891c0,8.75 -1.028,16.093 -3.086,22.031c-2.057,5.937 -5.299,10.417 -9.726,13.437c-4.427,3.021 -10.209,4.532 -17.344,4.532Zm-0,-18.125c2.604,-0 4.557,-0.782 5.859,-2.344c1.302,-1.563 2.175,-3.945 2.618,-7.149c0.442,-3.203 0.664,-7.252 0.664,-12.148l-0,-64.063c-0,-5.989 -0.56,-10.611 -1.68,-13.867c-1.12,-3.255 -3.529,-4.883 -7.227,-4.883c-3.802,0 -6.38,1.576 -7.734,4.727c-1.354,3.151 -2.031,7.8 -2.031,13.945l-0,64.141c-0,5 0.221,9.102 0.664,12.305c0.442,3.203 1.354,5.56 2.734,7.07c1.38,1.51 3.425,2.266 6.133,2.266Z" style="fill-rule:nonzero;"/>
            <path d="M218.555,145.391c-5.729,-0 -10.508,-0.899 -14.336,-2.696c-3.828,-1.797 -6.849,-4.427 -9.063,-7.89c-2.213,-3.464 -3.789,-7.683 -4.726,-12.657c-0.938,-4.974 -1.407,-10.638 -1.407,-16.992l0,-12.265l19.844,-0l0,13.828c0,7.396 0.625,12.708 1.875,15.937c1.25,3.229 3.724,4.844 7.422,4.844c2.5,0 4.388,-0.586 5.664,-1.758c1.276,-1.172 2.136,-3.047 2.578,-5.625c0.443,-2.578 0.664,-5.95 0.664,-10.117c0,-5.156 -1.08,-9.87 -3.242,-14.141c-2.161,-4.27 -5.43,-8.698 -9.805,-13.281l-10.156,-10.469c-2.812,-2.916 -5.351,-6.015 -7.617,-9.296c-2.266,-3.282 -4.062,-6.941 -5.391,-10.977c-1.328,-4.037 -1.992,-8.555 -1.992,-13.555c0,-7.239 0.886,-13.359 2.656,-18.359c1.771,-5 4.766,-8.789 8.985,-11.367c4.219,-2.578 10,-3.867 17.344,-3.867c5.52,-0 10.065,0.846 13.632,2.539c3.568,1.692 6.355,4.166 8.36,7.421c2.005,3.256 3.424,7.214 4.258,11.875c0.833,4.662 1.25,9.987 1.25,15.977l-0,8.516l-19.297,-0l-0,-9.844c-0,-4.167 -0.222,-7.63 -0.664,-10.391c-0.443,-2.76 -1.263,-4.83 -2.461,-6.211c-1.198,-1.38 -2.943,-2.07 -5.235,-2.07c-2.187,0 -3.958,0.482 -5.312,1.445c-1.354,0.964 -2.331,2.448 -2.93,4.453c-0.599,2.006 -0.898,4.597 -0.898,7.774c-0,2.864 0.364,5.338 1.093,7.422c0.73,2.083 1.849,4.088 3.36,6.015c1.51,1.927 3.385,4.089 5.625,6.485l11.328,12.265c5.417,5.834 9.635,11.901 12.656,18.204c3.021,6.302 4.531,13.333 4.531,21.093c0,8.229 -0.885,15.143 -2.656,20.742c-1.771,5.599 -4.739,9.831 -8.906,12.696c-4.167,2.864 -9.844,4.297 -17.031,4.297Z" style="fill-rule:nonzero;"/>
            <path d="M261.836,143.828l-0,-137.5l20.937,0l0,55.625l18.75,0l0,-55.625l20.938,0l-0,137.5l-20.938,0l0,-63.906l-18.75,-0l0,63.906l-20.937,0Z" style="fill-rule:nonzero;"/>
            <path d="M366.211,145.391c-5.573,-0 -10.104,-1.003 -13.594,-3.008c-3.489,-2.005 -6.172,-4.857 -8.047,-8.555c-1.875,-3.698 -3.164,-8.06 -3.867,-13.086c-0.703,-5.026 -1.055,-10.586 -1.055,-16.679l0,-13.36l15.704,0l-0,13.985c-0,9.635 0.69,16.523 2.07,20.664c1.38,4.14 4.362,6.211 8.945,6.211c3.177,-0 5.508,-0.743 6.992,-2.227c1.485,-1.484 2.435,-3.867 2.852,-7.148c0.417,-3.282 0.625,-7.605 0.625,-12.969c-0,-6.146 -1.081,-11.433 -3.242,-15.86c-2.162,-4.427 -5.274,-8.671 -9.336,-12.734l-8.985,-8.984c-2.604,-2.657 -5.156,-5.56 -7.656,-8.711c-2.5,-3.151 -4.57,-6.732 -6.211,-10.743c-1.64,-4.01 -2.461,-8.593 -2.461,-13.75c0,-6.927 0.729,-12.916 2.188,-17.968c1.458,-5.052 4.114,-8.959 7.969,-11.719c3.854,-2.76 9.322,-4.141 16.406,-4.141c5.573,0 10.039,0.964 13.398,2.891c3.36,1.927 5.886,4.674 7.578,8.242c1.693,3.568 2.813,7.8 3.36,12.695c0.547,4.896 0.82,10.313 0.82,16.25l0,8.125l-15.469,0l0,-9.218c0,-5.573 -0.221,-10.222 -0.664,-13.946c-0.442,-3.724 -1.341,-6.523 -2.695,-8.398c-1.354,-1.875 -3.464,-2.813 -6.328,-2.813c-2.604,0 -4.727,0.639 -6.367,1.915c-1.641,1.276 -2.826,3.242 -3.555,5.898c-0.729,2.656 -1.094,6.068 -1.094,10.234c0,3.646 0.443,6.654 1.328,9.024c0.886,2.37 2.227,4.57 4.024,6.601c1.797,2.032 3.997,4.427 6.601,7.188l9.375,9.922c4.948,5.156 8.998,10.924 12.149,17.304c3.151,6.381 4.726,13.789 4.726,22.227c0,7.604 -0.742,14.141 -2.226,19.609c-1.485,5.469 -4.128,9.675 -7.93,12.618c-3.802,2.942 -9.245,4.414 -16.328,4.414Z" style="fill-rule:nonzero;"/>
            <path d="M408.711,143.828l-0,-137.5l16.172,0l-0,58.828l22.031,0l0,-58.828l16.172,0l-0,137.5l-16.172,0l0,-65.469l-22.031,0l-0,65.469l-16.172,0Z" style="fill-rule:nonzero;"/>
            <path d="M511.367,145.391c-6.875,-0 -12.304,-1.511 -16.289,-4.532c-3.984,-3.02 -6.823,-7.578 -8.515,-13.671c-1.693,-6.094 -2.54,-13.724 -2.54,-22.891l0,-60.625c0,-7.917 0.782,-14.792 2.344,-20.625c1.563,-5.833 4.349,-10.365 8.36,-13.594c4.01,-3.229 9.687,-4.844 17.031,-4.844c5.521,0 10.026,0.925 13.515,2.774c3.49,1.849 6.185,4.479 8.086,7.89c1.901,3.412 3.217,7.513 3.946,12.305c0.729,4.792 1.093,10.156 1.093,16.094l0,60.625c0,9.167 -0.82,16.797 -2.461,22.891c-1.64,6.093 -4.427,10.651 -8.359,13.671c-3.932,3.021 -9.336,4.532 -16.211,4.532Zm0,-13.907c2.969,0 5.235,-0.846 6.797,-2.539c1.563,-1.692 2.63,-4.518 3.203,-8.476c0.573,-3.959 0.86,-9.297 0.86,-16.016l-0,-61.719c-0,-8.229 -0.651,-14.323 -1.954,-18.281c-1.302,-3.958 -4.14,-5.937 -8.515,-5.937c-4.531,-0 -7.591,1.966 -9.18,5.898c-1.588,3.932 -2.383,10.013 -2.383,18.242l0,61.797c0,6.771 0.287,12.123 0.86,16.055c0.573,3.932 1.666,6.745 3.281,8.437c1.615,1.693 3.958,2.539 7.031,2.539Z" style="fill-rule:nonzero;"/>
            <path d="M565.117,143.828l0,-124.062l-15.156,-0l-0,-13.438l45.391,0l-0,13.438l-14.141,-0l-0,124.062l-16.094,0Z" style="fill-rule:nonzero;"/>
        </g>
    </g>
</svg>